<svg id="Layer_1" data-name="Layer 1" xmlns="http://www.w3.org/2000/svg" viewBox="0 0 2497.0278 732.0205"><defs><style>.cls-1{fill:#fff;}</style></defs><path class="cls-1" d="M902.64,584.81h31.0144A184.824,184.824,0,0,1,752.6158,732.4214H592.0205c-102.0268,0-184.7528-82.7261-184.7528-184.7846V353.7416c0-102.0583,82.726-184.7844,184.7528-184.7844H752.6158c98.63,0,179.1973,77.2659,184.4988,174.5945H910.0682c-16.6023-85.0435-91.4875-149.1989-181.3561-149.1989H615.9239A184.7782,184.7782,0,0,0,431.14,379.1371V522.2412A184.7783,184.7783,0,0,0,615.9239,707.0258H728.7121A184.8692,184.8692,0,0,0,902.64,584.81Z" transform="translate(431.1401 -0.4009)"/><path class="cls-1" d="M358.1338,591.6387,601.13,303.145,363.6514,25.3657V.4009H777.69V37.5127H423.9849l225.8159,265.124L419.94,579.4912H809.2261v37.1123H358.1338Z" transform="translate(431.1401 -0.4009)"/><path class="cls-1" d="M-413.26,440.2085c4.897,20.0405,19.501,31.4565,46.04,31.4565,29.1279,0,40.437-13.124,40.437-29.25,0-16.9126-8.4756-26.9726-44.5063-35.1259-37.9346-8.6524-52.7925-20.3345-52.7925-42.836,0-21.9526,17.3935-41.209,54.6416-41.209,38.9306,0,55.1694,21.4268,57.4082,41.29h-17.8794c-3.5186-15.61-14.3579-27.4883-40.3013-27.4883-22.8818,0-35.5005,9.7163-35.5005,26.1494,0,16.207,10.4976,22.5527,41.2412,29.5313,48.3038,11.0019,56.0577,28.6757,56.0577,48.2046,0,24.2216-19.2315,44.228-59.7256,44.228-42.77,0-59.6656-22.4009-63-44.9507Z" transform="translate(431.1401 -0.4009)"/><path class="cls-1" d="M-258.84,325.5044V483.2788h-17.43V325.5044Z" transform="translate(431.1401 -0.4009)"/><path class="cls-1" d="M-81.0181,483.2788H-94.877c-1.0561-2.3516-1.623-9.9809-1.9067-23.5015-6.6977,10.9937-20.6885,25.4546-54.1372,25.4546-49.085,0-74.65-34.5078-74.65-79.3755,0-47.164,27.3545-82.6123,78.0054-82.6123,38.08,0,62.7158,18.7251,67.8574,47.41h-17.43c-6.6264-20.2007-22.04-33.3545-50.916-33.3545-41.2812,0-59.0693,30.0132-59.0693,67.7339,0,34.459,17.4472,66.0713,57.7109,66.0713,40.6538,0,51.4927-24.7149,51.4927-55.9048v-1.7358h-51.9028V399.1914h68.8051Z" transform="translate(431.1401 -0.4009)"/><path class="cls-1" d="M106.1826,413.1118c0-30.1665.2837-59.81,1.0166-75.9575h-.8115c-7.0391,23.166-38.4912,96.3931-59.2236,146.1245H30.9189c-15.63-39.373-48.1865-121.1245-55.9292-146.3867h-.6064c1.2612,18.1172,1.7891,54.0879,1.7891,81.1367v65.25H-40.67V325.5044H-14.603C6.9785,377.2832,33.8467,444.627,39.9658,463.46h.45c3.95-13.1572,35.3047-87.6142,57.4532-137.956h25.5087V483.2788H106.1826Z" transform="translate(431.1401 -0.4009)"/><path class="cls-1" d="M186.4834,431.99l-20.1841,51.2886H148.7812l61.792-157.7744h21.1285l64.4409,157.7744h-18.77L256.6611,431.99Zm65.1514-14.2724c-17.77-44.4375-27.1543-66.749-30.6934-77.9878h-.2441c-4.1548,12.5952-14.6827,39.9682-29.022,77.9878Z" transform="translate(431.1401 -0.4009)"/><path class="cls-1" d="M1106.3867,439.9634c-7.83,25.812-28.5371,45.1958-65.8056,45.1958-49.9082,0-75.6973-35.9444-75.6973-80.4326,0-42.7168,25.5351-81.4825,76.2158-81.4825,38.3545,0,60.1065,19.9639,65.4531,46.335h-17.4306c-7.0362-19.0088-20.4766-32.28-48.834-32.28-40.2529,0-56.957,33.9429-56.957,67.02,0,32.5245,16.2246,66.7852,57.9345,66.7852,27.1172,0,40.0772-13.5889,47.6514-31.1411Z" transform="translate(431.1401 -0.4009)"/><path class="cls-1" d="M1284.8145,403.37c0,43.2051-25.5166,82.169-78.66,82.169-49.0088,0-77.0361-35.8638-77.0361-81.1475,0-44.8594,27.7548-81.1475,78.8642-81.1475C1255.3389,323.2441,1284.8145,356.9736,1284.8145,403.37Zm-137.25.3433c0,35.3012,20.42,67.5893,59.44,67.5893,42.081,0,59.3623-31.9277,59.3623-67.67,0-35.4995-19.5684-66.1523-59.0693-66.1523C1165.7754,337.4805,1147.5645,368.9819,1147.5645,403.7134Z" transform="translate(431.1401 -0.4009)"/><path class="cls-1" d="M1317.9316,483.2788V325.5044h24.2159c25.62,37.4268,83.8759,121.1948,94.08,138.3359h.2842c-1.5449-21.6313-1.34-45.6-1.34-71.3286V325.5044h17.0088V483.2788h-22.5928c-24.085-35.4907-83.9063-123.9263-95.4209-141.438h-.2832c1.2217,19.4883,1.0947,44.1729,1.0947,72.7315v68.7065Z" transform="translate(431.1401 -0.4009)"/><path class="cls-1" d="M1531.7891,339.7769h-56.2979V325.5044h130.3965v14.2725h-56.4629V483.2788h-17.6357Z" transform="translate(431.1401 -0.4009)"/><path class="cls-1" d="M1644.82,411.4746v71.8042h-17.4785V325.5044h63.6562c34.2764,0,52.47,17.0874,52.47,41.8042,0,20.26-12.836,33.0425-30.6446,37.03,15.9112,3.6611,27.8,13.8125,27.8,40.8891V451.62c0,10.9663-.7822,25.3394,2.2383,31.6592h-17.2822c-3.1387-6.78-2.6406-19.2559-2.6406-33.36v-3.7422c0-24.36-7.6426-34.7017-39.374-34.7017Zm0-14.1274h39.3438c28.22,0,41.0136-9.7808,41.0136-29.1607,0-18.2046-12.8242-28.5547-37.8574-28.5547h-42.5Z" transform="translate(431.1401 -0.4009)"/><path class="cls-1" d="M1924.8965,403.37c0,43.2051-25.5166,82.169-78.66,82.169-49.0088,0-77.0361-35.8638-77.0361-81.1475,0-44.8594,27.7549-81.1475,78.8643-81.1475C1895.4209,323.2441,1924.8965,356.9736,1924.8965,403.37Zm-137.25.3433c0,35.3012,20.42,67.5893,59.44,67.5893,42.0811,0,59.3623-31.9277,59.3623-67.67,0-35.4995-19.5683-66.1523-59.0693-66.1523C1805.8574,337.4805,1787.6465,368.9819,1787.6465,403.7134Z" transform="translate(431.1401 -0.4009)"/><path class="cls-1" d="M1958.0137,325.5044h17.43V469.0063h90.4443l-2.7568,14.2725H1958.0137Z" transform="translate(431.1401 -0.4009)"/></svg>